<?xml version="1.0" encoding="utf-8" standalone="no"?>
<!DOCTYPE svg PUBLIC "-//W3C//DTD SVG 1.1//EN"
  "http://www.w3.org/Graphics/SVG/1.1/DTD/svg11.dtd">
<svg xmlns:xlink="http://www.w3.org/1999/xlink" width="745.7235pt" height="457.19175pt" viewBox="0 0 745.7235 457.19175" xmlns="http://www.w3.org/2000/svg" version="1.1">
 <metadata>
  <rdf:RDF xmlns:dc="http://purl.org/dc/elements/1.1/" xmlns:cc="http://creativecommons.org/ns#" xmlns:rdf="http://www.w3.org/1999/02/22-rdf-syntax-ns#">
   <cc:Work>
    <dc:type rdf:resource="http://purl.org/dc/dcmitype/StillImage"/>
    <dc:date>2025-08-29T19:56:48.840394</dc:date>
    <dc:format>image/svg+xml</dc:format>
    <dc:creator>
     <cc:Agent>
      <dc:title>Matplotlib v3.9.2, https://matplotlib.org/</dc:title>
     </cc:Agent>
    </dc:creator>
   </cc:Work>
  </rdf:RDF>
 </metadata>
 <defs>
  <style type="text/css">*{stroke-linejoin: round; stroke-linecap: butt}</style>
 </defs>
 <g id="figure_1">
  <g id="patch_1">
   <path d="M 0 395.28 
L 676.8 395.28 
L 676.8 0 
L 0 0 
L 0 395.28 
z
" style="fill: none"/>
  </g>
  <g id="axes_1">
   <g id="LineCollection_1">
    <path d="M 59.37761 132.96 
L 59.37761 29.472 
" clip-path="url(#pcd5c9aaf75)" style="fill: none; stroke: #006400; stroke-width: 2"/>
    <path d="M 76.595616 219.2 
L 76.595616 98.464 
" clip-path="url(#pcd5c9aaf75)" style="fill: none; stroke: #006400; stroke-width: 2"/>
    <path d="M 289.65736 270.944 
L 289.65736 236.448 
" clip-path="url(#pcd5c9aaf75)" style="fill: none; stroke: #006400; stroke-width: 2"/>
    <path d="M 393.34961 295.0912 
L 393.34961 264.0448 
" clip-path="url(#pcd5c9aaf75)" style="fill: none; stroke: #006400; stroke-width: 2"/>
    <path d="M 422.418243 310.6144 
L 422.418243 283.0176 
" clip-path="url(#pcd5c9aaf75)" style="fill: none; stroke: #006400; stroke-width: 2"/>
    <path d="M 471.484057 319.616754 
L 471.484057 267.872754 
" clip-path="url(#pcd5c9aaf75)" style="fill: none; stroke: #006400; stroke-width: 2"/>
    <path d="M 511.058901 318.651613 
L 511.058901 284.155613 
" clip-path="url(#pcd5c9aaf75)" style="fill: none; stroke: #006400; stroke-width: 2"/>
    <path d="M 541.755535 341.290676 
L 541.755535 272.298676 
" clip-path="url(#pcd5c9aaf75)" style="fill: none; stroke: #006400; stroke-width: 2"/>
   </g>
   <g id="line2d_1">
    <defs>
     <path id="m12979fea73" d="M 5.5 0 
L -5.5 -0 
" style="stroke: #006400; stroke-width: 2"/>
    </defs>
    <g clip-path="url(#pcd5c9aaf75)">
     <use xlink:href="#m12979fea73" x="59.37761" y="132.96" style="fill: #006400; stroke: #006400; stroke-width: 2"/>
     <use xlink:href="#m12979fea73" x="76.595616" y="219.2" style="fill: #006400; stroke: #006400; stroke-width: 2"/>
     <use xlink:href="#m12979fea73" x="289.65736" y="270.944" style="fill: #006400; stroke: #006400; stroke-width: 2"/>
     <use xlink:href="#m12979fea73" x="393.34961" y="295.0912" style="fill: #006400; stroke: #006400; stroke-width: 2"/>
     <use xlink:href="#m12979fea73" x="422.418243" y="310.6144" style="fill: #006400; stroke: #006400; stroke-width: 2"/>
     <use xlink:href="#m12979fea73" x="471.484057" y="319.616754" style="fill: #006400; stroke: #006400; stroke-width: 2"/>
     <use xlink:href="#m12979fea73" x="511.058901" y="318.651613" style="fill: #006400; stroke: #006400; stroke-width: 2"/>
     <use xlink:href="#m12979fea73" x="541.755535" y="341.290676" style="fill: #006400; stroke: #006400; stroke-width: 2"/>
    </g>
   </g>
   <g id="line2d_2">
    <g clip-path="url(#pcd5c9aaf75)">
     <use xlink:href="#m12979fea73" x="59.37761" y="29.472" style="fill: #006400; stroke: #006400; stroke-width: 2"/>
     <use xlink:href="#m12979fea73" x="76.595616" y="98.464" style="fill: #006400; stroke: #006400; stroke-width: 2"/>
     <use xlink:href="#m12979fea73" x="289.65736" y="236.448" style="fill: #006400; stroke: #006400; stroke-width: 2"/>
     <use xlink:href="#m12979fea73" x="393.34961" y="264.0448" style="fill: #006400; stroke: #006400; stroke-width: 2"/>
     <use xlink:href="#m12979fea73" x="422.418243" y="283.0176" style="fill: #006400; stroke: #006400; stroke-width: 2"/>
     <use xlink:href="#m12979fea73" x="471.484057" y="267.872754" style="fill: #006400; stroke: #006400; stroke-width: 2"/>
     <use xlink:href="#m12979fea73" x="511.058901" y="284.155613" style="fill: #006400; stroke: #006400; stroke-width: 2"/>
     <use xlink:href="#m12979fea73" x="541.755535" y="272.298676" style="fill: #006400; stroke: #006400; stroke-width: 2"/>
    </g>
   </g>
   <g id="LineCollection_2">
    <path d="M 98.952453 136.474913 
L 98.952453 101.978913 
" clip-path="url(#pcd5c9aaf75)" style="fill: none; stroke: #ff2c00; stroke-width: 2"/>
    <path d="M 320.353994 305.87625 
L 320.353994 185.14025 
" clip-path="url(#pcd5c9aaf75)" style="fill: none; stroke: #ff2c00; stroke-width: 2"/>
    <path d="M 492.68972 315.202757 
L 492.68972 280.706757 
" clip-path="url(#pcd5c9aaf75)" style="fill: none; stroke: #ff2c00; stroke-width: 2"/>
    <path d="M 514.455728 327.275613 
L 514.455728 258.283613 
" clip-path="url(#pcd5c9aaf75)" style="fill: none; stroke: #ff2c00; stroke-width: 2"/>
    <path d="M 622.61412 327.734403 
L 622.61412 310.486403 
" clip-path="url(#pcd5c9aaf75)" style="fill: none; stroke: #ff2c00; stroke-width: 2"/>
    <path d="M 637.107988 329.695768 
L 637.107988 312.447768 
" clip-path="url(#pcd5c9aaf75)" style="fill: none; stroke: #ff2c00; stroke-width: 2"/>
   </g>
   <g id="line2d_3">
    <defs>
     <path id="m698967e03b" d="M 5.5 0 
L -5.5 -0 
" style="stroke: #ff2c00; stroke-width: 2"/>
    </defs>
    <g clip-path="url(#pcd5c9aaf75)">
     <use xlink:href="#m698967e03b" x="98.952453" y="136.474913" style="fill: #ff2c00; stroke: #ff2c00; stroke-width: 2"/>
     <use xlink:href="#m698967e03b" x="320.353994" y="305.87625" style="fill: #ff2c00; stroke: #ff2c00; stroke-width: 2"/>
     <use xlink:href="#m698967e03b" x="492.68972" y="315.202757" style="fill: #ff2c00; stroke: #ff2c00; stroke-width: 2"/>
     <use xlink:href="#m698967e03b" x="514.455728" y="327.275613" style="fill: #ff2c00; stroke: #ff2c00; stroke-width: 2"/>
     <use xlink:href="#m698967e03b" x="622.61412" y="327.734403" style="fill: #ff2c00; stroke: #ff2c00; stroke-width: 2"/>
     <use xlink:href="#m698967e03b" x="637.107988" y="329.695768" style="fill: #ff2c00; stroke: #ff2c00; stroke-width: 2"/>
    </g>
   </g>
   <g id="line2d_4">
    <g clip-path="url(#pcd5c9aaf75)">
     <use xlink:href="#m698967e03b" x="98.952453" y="101.978913" style="fill: #ff2c00; stroke: #ff2c00; stroke-width: 2"/>
     <use xlink:href="#m698967e03b" x="320.353994" y="185.14025" style="fill: #ff2c00; stroke: #ff2c00; stroke-width: 2"/>
     <use xlink:href="#m698967e03b" x="492.68972" y="280.706757" style="fill: #ff2c00; stroke: #ff2c00; stroke-width: 2"/>
     <use xlink:href="#m698967e03b" x="514.455728" y="258.283613" style="fill: #ff2c00; stroke: #ff2c00; stroke-width: 2"/>
     <use xlink:href="#m698967e03b" x="622.61412" y="310.486403" style="fill: #ff2c00; stroke: #ff2c00; stroke-width: 2"/>
     <use xlink:href="#m698967e03b" x="637.107988" y="312.447768" style="fill: #ff2c00; stroke: #ff2c00; stroke-width: 2"/>
    </g>
   </g>
   <g id="LineCollection_3">
    <path d="M 415.706447 324.445456 
L 415.706447 272.701456 
" clip-path="url(#pcd5c9aaf75)" style="fill: none; stroke: #0c5da5; stroke-width: 2"/>
    <path d="M 446.403081 314.290379 
L 446.403081 279.794379 
" clip-path="url(#pcd5c9aaf75)" style="fill: none; stroke: #0c5da5; stroke-width: 2"/>
   </g>
   <g id="line2d_5">
    <defs>
     <path id="m9ee25ad4d6" d="M 5.5 0 
L -5.5 -0 
" style="stroke: #0c5da5; stroke-width: 2"/>
    </defs>
    <g clip-path="url(#pcd5c9aaf75)">
     <use xlink:href="#m9ee25ad4d6" x="415.706447" y="324.445456" style="fill: #0c5da5; stroke: #0c5da5; stroke-width: 2"/>
     <use xlink:href="#m9ee25ad4d6" x="446.403081" y="314.290379" style="fill: #0c5da5; stroke: #0c5da5; stroke-width: 2"/>
    </g>
   </g>
   <g id="line2d_6">
    <g clip-path="url(#pcd5c9aaf75)">
     <use xlink:href="#m9ee25ad4d6" x="415.706447" y="272.701456" style="fill: #0c5da5; stroke: #0c5da5; stroke-width: 2"/>
     <use xlink:href="#m9ee25ad4d6" x="446.403081" y="279.794379" style="fill: #0c5da5; stroke: #0c5da5; stroke-width: 2"/>
    </g>
   </g>
   <g id="LineCollection_4">
    <path d="M 194.304907 229.056244 
L 194.304907 182.486644 
" clip-path="url(#pcd5c9aaf75)" style="fill: none; stroke: #845b97; stroke-width: 2"/>
    <path d="M 271.28818 242.906739 
L 271.28818 234.282739 
" clip-path="url(#pcd5c9aaf75)" style="fill: none; stroke: #845b97; stroke-width: 2"/>
   </g>
   <g id="line2d_7">
    <defs>
     <path id="m2213381c67" d="M 5.5 0 
L -5.5 -0 
" style="stroke: #845b97; stroke-width: 2"/>
    </defs>
    <g clip-path="url(#pcd5c9aaf75)">
     <use xlink:href="#m2213381c67" x="194.304907" y="229.056244" style="fill: #845b97; stroke: #845b97; stroke-width: 2"/>
     <use xlink:href="#m2213381c67" x="271.28818" y="242.906739" style="fill: #845b97; stroke: #845b97; stroke-width: 2"/>
    </g>
   </g>
   <g id="line2d_8">
    <g clip-path="url(#pcd5c9aaf75)">
     <use xlink:href="#m2213381c67" x="194.304907" y="182.486644" style="fill: #845b97; stroke: #845b97; stroke-width: 2"/>
     <use xlink:href="#m2213381c67" x="271.28818" y="234.282739" style="fill: #845b97; stroke: #845b97; stroke-width: 2"/>
    </g>
   </g>
   <g id="line2d_9">
    <defs>
     <path id="m0f79bba38f" d="M 0 -5 
L -5 5 
L 5 5 
z
" style="stroke: #006400; stroke-width: 2; stroke-linejoin: miter"/>
    </defs>
    <g clip-path="url(#pcd5c9aaf75)">
     <use xlink:href="#m0f79bba38f" x="59.37761" y="81.216" style="fill: #006400; stroke: #006400; stroke-width: 2; stroke-linejoin: miter"/>
     <use xlink:href="#m0f79bba38f" x="76.595616" y="158.832" style="fill: #006400; stroke: #006400; stroke-width: 2; stroke-linejoin: miter"/>
     <use xlink:href="#m0f79bba38f" x="289.65736" y="253.696" style="fill: #006400; stroke: #006400; stroke-width: 2; stroke-linejoin: miter"/>
     <use xlink:href="#m0f79bba38f" x="393.34961" y="279.568" style="fill: #006400; stroke: #006400; stroke-width: 2; stroke-linejoin: miter"/>
     <use xlink:href="#m0f79bba38f" x="422.418243" y="296.816" style="fill: #006400; stroke: #006400; stroke-width: 2; stroke-linejoin: miter"/>
     <use xlink:href="#m0f79bba38f" x="471.484057" y="293.744754" style="fill: #006400; stroke: #006400; stroke-width: 2; stroke-linejoin: miter"/>
     <use xlink:href="#m0f79bba38f" x="511.058901" y="301.403613" style="fill: #006400; stroke: #006400; stroke-width: 2; stroke-linejoin: miter"/>
     <use xlink:href="#m0f79bba38f" x="541.755535" y="306.794676" style="fill: #006400; stroke: #006400; stroke-width: 2; stroke-linejoin: miter"/>
    </g>
   </g>
   <g id="line2d_10">
    <defs>
     <path id="md12ff6d9e3" d="M 0 5 
C 1.326016 5 2.597899 4.473168 3.535534 3.535534 
C 4.473168 2.597899 5 1.326016 5 0 
C 5 -1.326016 4.473168 -2.597899 3.535534 -3.535534 
C 2.597899 -4.473168 1.326016 -5 0 -5 
C -1.326016 -5 -2.597899 -4.473168 -3.535534 -3.535534 
C -4.473168 -2.597899 -5 -1.326016 -5 0 
C -5 1.326016 -4.473168 2.597899 -3.535534 3.535534 
C -2.597899 4.473168 -1.326016 5 0 5 
z
" style="stroke: #ff2c00; stroke-width: 2"/>
    </defs>
    <g clip-path="url(#pcd5c9aaf75)">
     <use xlink:href="#md12ff6d9e3" x="98.952453" y="119.226913" style="fill: #ff2c00; stroke: #ff2c00; stroke-width: 2"/>
     <use xlink:href="#md12ff6d9e3" x="320.353994" y="245.50825" style="fill: #ff2c00; stroke: #ff2c00; stroke-width: 2"/>
     <use xlink:href="#md12ff6d9e3" x="492.68972" y="297.954757" style="fill: #ff2c00; stroke: #ff2c00; stroke-width: 2"/>
     <use xlink:href="#md12ff6d9e3" x="514.455728" y="292.779613" style="fill: #ff2c00; stroke: #ff2c00; stroke-width: 2"/>
     <use xlink:href="#md12ff6d9e3" x="622.61412" y="319.110403" style="fill: #ff2c00; stroke: #ff2c00; stroke-width: 2"/>
     <use xlink:href="#md12ff6d9e3" x="637.107988" y="321.071768" style="fill: #ff2c00; stroke: #ff2c00; stroke-width: 2"/>
    </g>
   </g>
   <g id="line2d_11">
    <defs>
     <path id="m8e3ae5f457" d="M -0 7.071068 
L 4.242641 0 
L -0 -7.071068 
L -4.242641 -0 
z
" style="stroke: #0c5da5; stroke-width: 2; stroke-linejoin: miter"/>
    </defs>
    <g clip-path="url(#pcd5c9aaf75)">
     <use xlink:href="#m8e3ae5f457" x="415.706447" y="298.573456" style="fill: #0c5da5; stroke: #0c5da5; stroke-width: 2; stroke-linejoin: miter"/>
     <use xlink:href="#m8e3ae5f457" x="446.403081" y="297.042379" style="fill: #0c5da5; stroke: #0c5da5; stroke-width: 2; stroke-linejoin: miter"/>
    </g>
   </g>
   <g id="line2d_12">
    <defs>
     <path id="ma13abc75a2" d="M -5 5 
L 5 5 
L 5 -5 
L -5 -5 
z
" style="stroke: #845b97; stroke-width: 2; stroke-linejoin: miter"/>
    </defs>
    <g clip-path="url(#pcd5c9aaf75)">
     <use xlink:href="#ma13abc75a2" x="194.304907" y="205.771444" style="fill: #845b97; stroke: #845b97; stroke-width: 2; stroke-linejoin: miter"/>
     <use xlink:href="#ma13abc75a2" x="271.28818" y="238.594739" style="fill: #845b97; stroke: #845b97; stroke-width: 2; stroke-linejoin: miter"/>
    </g>
   </g>
   <g id="legend_1">
    <g id="LineCollection_5">
     <path d="M 461.740781 27.127969 
L 461.740781 14.127969 
" style="fill: none; stroke: #006400; stroke-width: 2"/>
    </g>
    <g id="line2d_13">
     <g>
      <use xlink:href="#m12979fea73" x="461.740781" y="27.127969" style="fill: #006400; stroke: #006400; stroke-width: 2"/>
     </g>
    </g>
    <g id="line2d_14">
     <g>
      <use xlink:href="#m12979fea73" x="461.740781" y="14.127969" style="fill: #006400; stroke: #006400; stroke-width: 2"/>
     </g>
    </g>
    <g id="line2d_15"/>
    <g id="line2d_16">
     <g>
      <use xlink:href="#m0f79bba38f" x="461.740781" y="20.627969" style="fill: #006400; stroke: #006400; stroke-width: 2; stroke-linejoin: miter"/>
     </g>
    </g>
    <g id="text_1">
     <!-- Deep Innelastic Scattering -->
     <g transform="translate(485.140781 25.177969) scale(0.13 -0.13)">
      <defs>
       <path id="DejaVuSerif-44" d="M 1581 331 
L 2163 331 
Q 3072 331 3558 850 
Q 4044 1369 4044 2338 
Q 4044 3306 3559 3818 
Q 3075 4331 2163 4331 
L 1581 4331 
L 1581 331 
z
M 353 0 
L 353 331 
L 947 331 
L 947 4331 
L 353 4331 
L 353 4666 
L 2209 4666 
Q 3416 4666 4089 4050 
Q 4763 3434 4763 2338 
Q 4763 1238 4088 619 
Q 3413 0 2209 0 
L 353 0 
z
" transform="scale(0.015625)"/>
       <path id="DejaVuSerif-65" d="M 3469 1600 
L 991 1600 
L 991 1575 
Q 991 903 1244 561 
Q 1497 219 1991 219 
Q 2369 219 2611 417 
Q 2853 616 2950 1006 
L 3413 1006 
Q 3275 459 2904 184 
Q 2534 -91 1931 -91 
Q 1203 -91 761 389 
Q 319 869 319 1663 
Q 319 2450 753 2931 
Q 1188 3413 1894 3413 
Q 2647 3413 3050 2948 
Q 3453 2484 3469 1600 
z
M 2791 1931 
Q 2772 2513 2545 2808 
Q 2319 3103 1894 3103 
Q 1497 3103 1269 2806 
Q 1041 2509 991 1931 
L 2791 1931 
z
" transform="scale(0.015625)"/>
       <path id="DejaVuSerif-70" d="M 1313 1825 
L 1313 1497 
Q 1313 897 1542 583 
Q 1772 269 2209 269 
Q 2650 269 2876 622 
Q 3103 975 3103 1663 
Q 3103 2353 2876 2703 
Q 2650 3053 2209 3053 
Q 1772 3053 1542 2737 
Q 1313 2422 1313 1825 
z
M 738 2988 
L 184 2988 
L 184 3322 
L 1313 3322 
L 1313 2803 
Q 1481 3116 1742 3264 
Q 2003 3413 2388 3413 
Q 3000 3413 3387 2928 
Q 3775 2444 3775 1663 
Q 3775 881 3387 395 
Q 3000 -91 2388 -91 
Q 2003 -91 1742 57 
Q 1481 206 1313 519 
L 1313 -997 
L 1856 -997 
L 1856 -1331 
L 184 -1331 
L 184 -997 
L 738 -997 
L 738 2988 
z
" transform="scale(0.015625)"/>
       <path id="DejaVuSerif-20" transform="scale(0.015625)"/>
       <path id="DejaVuSerif-49" d="M 1581 331 
L 2175 331 
L 2175 0 
L 353 0 
L 353 331 
L 947 331 
L 947 4331 
L 353 4331 
L 353 4666 
L 2175 4666 
L 2175 4331 
L 1581 4331 
L 1581 331 
z
" transform="scale(0.015625)"/>
       <path id="DejaVuSerif-6e" d="M 263 0 
L 263 331 
L 781 331 
L 781 2988 
L 231 2988 
L 231 3322 
L 1356 3322 
L 1356 2731 
Q 1516 3069 1770 3241 
Q 2025 3413 2363 3413 
Q 2913 3413 3172 3097 
Q 3431 2781 3431 2113 
L 3431 331 
L 3944 331 
L 3944 0 
L 2356 0 
L 2356 331 
L 2853 331 
L 2853 1931 
Q 2853 2541 2703 2767 
Q 2553 2994 2175 2994 
Q 1775 2994 1565 2701 
Q 1356 2409 1356 1850 
L 1356 331 
L 1856 331 
L 1856 0 
L 263 0 
z
" transform="scale(0.015625)"/>
       <path id="DejaVuSerif-6c" d="M 1313 331 
L 1856 331 
L 1856 0 
L 184 0 
L 184 331 
L 738 331 
L 738 4531 
L 184 4531 
L 184 4863 
L 1313 4863 
L 1313 331 
z
" transform="scale(0.015625)"/>
       <path id="DejaVuSerif-61" d="M 2547 1044 
L 2547 1747 
L 1806 1747 
Q 1378 1747 1168 1562 
Q 959 1378 959 997 
Q 959 650 1171 447 
Q 1384 244 1747 244 
Q 2106 244 2326 466 
Q 2547 688 2547 1044 
z
M 3122 2075 
L 3122 331 
L 3634 331 
L 3634 0 
L 2547 0 
L 2547 359 
Q 2356 128 2106 18 
Q 1856 -91 1522 -91 
Q 969 -91 644 203 
Q 319 497 319 997 
Q 319 1513 691 1797 
Q 1063 2081 1741 2081 
L 2547 2081 
L 2547 2309 
Q 2547 2688 2317 2895 
Q 2088 3103 1672 3103 
Q 1328 3103 1125 2947 
Q 922 2791 872 2484 
L 575 2484 
L 575 3156 
Q 875 3284 1158 3348 
Q 1441 3413 1709 3413 
Q 2400 3413 2761 3070 
Q 3122 2728 3122 2075 
z
" transform="scale(0.015625)"/>
       <path id="DejaVuSerif-73" d="M 359 184 
L 359 959 
L 691 959 
Q 703 588 923 403 
Q 1144 219 1575 219 
Q 1963 219 2166 364 
Q 2369 509 2369 788 
Q 2369 1006 2220 1140 
Q 2072 1275 1594 1428 
L 1178 1569 
Q 750 1706 558 1912 
Q 366 2119 366 2438 
Q 366 2894 700 3153 
Q 1034 3413 1625 3413 
Q 1888 3413 2178 3344 
Q 2469 3275 2778 3144 
L 2778 2419 
L 2447 2419 
Q 2434 2741 2221 2922 
Q 2009 3103 1644 3103 
Q 1281 3103 1095 2975 
Q 909 2847 909 2591 
Q 909 2381 1050 2254 
Q 1191 2128 1613 1997 
L 2069 1856 
Q 2541 1709 2748 1489 
Q 2956 1269 2956 922 
Q 2956 450 2595 179 
Q 2234 -91 1600 -91 
Q 1278 -91 972 -22 
Q 666 47 359 184 
z
" transform="scale(0.015625)"/>
       <path id="DejaVuSerif-74" d="M 691 2988 
L 184 2988 
L 184 3322 
L 691 3322 
L 691 4353 
L 1269 4353 
L 1269 3322 
L 2350 3322 
L 2350 2988 
L 1269 2988 
L 1269 878 
Q 1269 456 1350 337 
Q 1431 219 1650 219 
Q 1875 219 1978 351 
Q 2081 484 2088 781 
L 2522 781 
Q 2497 328 2275 118 
Q 2053 -91 1600 -91 
Q 1103 -91 897 129 
Q 691 350 691 878 
L 691 2988 
z
" transform="scale(0.015625)"/>
       <path id="DejaVuSerif-69" d="M 622 4353 
Q 622 4497 726 4603 
Q 831 4709 978 4709 
Q 1122 4709 1226 4603 
Q 1331 4497 1331 4353 
Q 1331 4206 1228 4103 
Q 1125 4000 978 4000 
Q 831 4000 726 4103 
Q 622 4206 622 4353 
z
M 1356 331 
L 1900 331 
L 1900 0 
L 231 0 
L 231 331 
L 781 331 
L 781 2988 
L 231 2988 
L 231 3322 
L 1356 3322 
L 1356 331 
z
" transform="scale(0.015625)"/>
       <path id="DejaVuSerif-63" d="M 3291 997 
Q 3169 466 2822 187 
Q 2475 -91 1925 -91 
Q 1200 -91 759 389 
Q 319 869 319 1663 
Q 319 2459 759 2936 
Q 1200 3413 1925 3413 
Q 2241 3413 2553 3339 
Q 2866 3266 3181 3116 
L 3181 2266 
L 2847 2266 
Q 2781 2703 2561 2903 
Q 2341 3103 1931 3103 
Q 1466 3103 1228 2742 
Q 991 2381 991 1663 
Q 991 944 1227 581 
Q 1463 219 1931 219 
Q 2303 219 2525 412 
Q 2747 606 2828 997 
L 3291 997 
z
" transform="scale(0.015625)"/>
       <path id="DejaVuSerif-53" d="M 594 225 
L 594 1288 
L 953 1284 
Q 969 753 1261 498 
Q 1553 244 2150 244 
Q 2706 244 2998 464 
Q 3291 684 3291 1106 
Q 3291 1444 3114 1625 
Q 2938 1806 2369 1978 
L 1753 2163 
Q 1084 2366 811 2669 
Q 538 2972 538 3500 
Q 538 4094 959 4422 
Q 1381 4750 2144 4750 
Q 2469 4750 2856 4679 
Q 3244 4609 3681 4475 
L 3681 3481 
L 3328 3481 
Q 3275 3975 2998 4195 
Q 2722 4416 2156 4416 
Q 1663 4416 1405 4214 
Q 1147 4013 1147 3628 
Q 1147 3294 1340 3103 
Q 1534 2913 2163 2725 
L 2741 2553 
Q 3375 2363 3645 2067 
Q 3916 1772 3916 1275 
Q 3916 597 3481 253 
Q 3047 -91 2188 -91 
Q 1803 -91 1404 -12 
Q 1006 66 594 225 
z
" transform="scale(0.015625)"/>
       <path id="DejaVuSerif-72" d="M 3059 3328 
L 3059 2497 
L 2728 2497 
Q 2713 2744 2591 2866 
Q 2469 2988 2234 2988 
Q 1809 2988 1582 2694 
Q 1356 2400 1356 1850 
L 1356 331 
L 2022 331 
L 2022 0 
L 263 0 
L 263 331 
L 781 331 
L 781 2994 
L 231 2994 
L 231 3322 
L 1356 3322 
L 1356 2731 
Q 1525 3078 1790 3245 
Q 2056 3413 2438 3413 
Q 2578 3413 2733 3391 
Q 2888 3369 3059 3328 
z
" transform="scale(0.015625)"/>
       <path id="DejaVuSerif-67" d="M 3359 2988 
L 3359 72 
Q 3359 -644 2965 -1033 
Q 2572 -1422 1844 -1422 
Q 1516 -1422 1216 -1362 
Q 916 -1303 641 -1184 
L 641 -488 
L 941 -488 
Q 997 -813 1206 -963 
Q 1416 -1113 1806 -1113 
Q 2313 -1113 2548 -827 
Q 2784 -541 2784 72 
L 2784 519 
Q 2616 206 2355 57 
Q 2094 -91 1709 -91 
Q 1097 -91 708 395 
Q 319 881 319 1663 
Q 319 2444 706 2928 
Q 1094 3413 1709 3413 
Q 2094 3413 2355 3264 
Q 2616 3116 2784 2803 
L 2784 3322 
L 3909 3322 
L 3909 2988 
L 3359 2988 
z
M 2784 1825 
Q 2784 2422 2554 2737 
Q 2325 3053 1888 3053 
Q 1444 3053 1217 2703 
Q 991 2353 991 1663 
Q 991 975 1217 622 
Q 1444 269 1888 269 
Q 2325 269 2554 583 
Q 2784 897 2784 1497 
L 2784 1825 
z
" transform="scale(0.015625)"/>
      </defs>
      <use xlink:href="#DejaVuSerif-44"/>
      <use xlink:href="#DejaVuSerif-65" x="80.175781"/>
      <use xlink:href="#DejaVuSerif-65" x="139.355469"/>
      <use xlink:href="#DejaVuSerif-70" x="198.535156"/>
      <use xlink:href="#DejaVuSerif-20" x="262.548828"/>
      <use xlink:href="#DejaVuSerif-49" x="294.335938"/>
      <use xlink:href="#DejaVuSerif-6e" x="333.837891"/>
      <use xlink:href="#DejaVuSerif-6e" x="398.242188"/>
      <use xlink:href="#DejaVuSerif-65" x="462.646484"/>
      <use xlink:href="#DejaVuSerif-6c" x="521.826172"/>
      <use xlink:href="#DejaVuSerif-61" x="553.808594"/>
      <use xlink:href="#DejaVuSerif-73" x="613.427734"/>
      <use xlink:href="#DejaVuSerif-74" x="664.746094"/>
      <use xlink:href="#DejaVuSerif-69" x="704.931641"/>
      <use xlink:href="#DejaVuSerif-63" x="736.914062"/>
      <use xlink:href="#DejaVuSerif-20" x="792.919922"/>
      <use xlink:href="#DejaVuSerif-53" x="824.707031"/>
      <use xlink:href="#DejaVuSerif-63" x="893.212891"/>
      <use xlink:href="#DejaVuSerif-61" x="949.21875"/>
      <use xlink:href="#DejaVuSerif-74" x="1008.837891"/>
      <use xlink:href="#DejaVuSerif-74" x="1049.023438"/>
      <use xlink:href="#DejaVuSerif-65" x="1089.208984"/>
      <use xlink:href="#DejaVuSerif-72" x="1148.388672"/>
      <use xlink:href="#DejaVuSerif-69" x="1196.191406"/>
      <use xlink:href="#DejaVuSerif-6e" x="1228.173828"/>
      <use xlink:href="#DejaVuSerif-67" x="1292.578125"/>
     </g>
    </g>
    <g id="LineCollection_6">
     <path d="M 461.740781 46.394375 
L 461.740781 33.394375 
" style="fill: none; stroke: #ff2c00; stroke-width: 2"/>
    </g>
    <g id="line2d_17">
     <g>
      <use xlink:href="#m698967e03b" x="461.740781" y="46.394375" style="fill: #ff2c00; stroke: #ff2c00; stroke-width: 2"/>
     </g>
    </g>
    <g id="line2d_18">
     <g>
      <use xlink:href="#m698967e03b" x="461.740781" y="33.394375" style="fill: #ff2c00; stroke: #ff2c00; stroke-width: 2"/>
     </g>
    </g>
    <g id="line2d_19"/>
    <g id="line2d_20">
     <g>
      <use xlink:href="#md12ff6d9e3" x="461.740781" y="39.894375" style="fill: #ff2c00; stroke: #ff2c00; stroke-width: 2"/>
     </g>
    </g>
    <g id="text_2">
     <!-- $e^+e^-$ Annihilation -->
     <g transform="translate(485.140781 44.444375) scale(0.13 -0.13)">
      <defs>
       <path id="STIXGeneral-Italic-65" d="M 2291 698 
L 2368 621 
Q 1805 -70 1062 -70 
Q 672 -70 435 170 
Q 198 410 198 806 
Q 198 1555 796 2188 
Q 1395 2822 2112 2822 
Q 2362 2822 2499 2707 
Q 2637 2592 2637 2387 
Q 2637 1965 2147 1632 
Q 1658 1299 819 1190 
Q 755 1062 755 800 
Q 755 538 918 378 
Q 1082 218 1350 218 
Q 1562 218 1754 317 
Q 1946 416 2291 698 
z
M 973 1613 
L 864 1331 
Q 1581 1504 1894 1805 
Q 2214 2112 2214 2426 
Q 2214 2675 1990 2675 
Q 1722 2675 1430 2364 
Q 1139 2054 973 1613 
z
" transform="scale(0.015625)"/>
       <path id="STIXGeneral-Regular-2b" d="M 4070 1408 
L 2400 1408 
L 2400 -262 
L 1978 -262 
L 1978 1408 
L 307 1408 
L 307 1830 
L 1978 1830 
L 1978 3501 
L 2400 3501 
L 2400 1830 
L 4070 1830 
L 4070 1408 
z
" transform="scale(0.015625)"/>
       <path id="STIXGeneral-Regular-2212" d="M 3974 1408 
L 410 1408 
L 410 1830 
L 3974 1830 
L 3974 1408 
z
" transform="scale(0.015625)"/>
       <path id="DejaVuSerif-41" d="M 1281 1691 
L 2994 1691 
L 2138 3909 
L 1281 1691 
z
M -38 0 
L -38 331 
L 372 331 
L 2034 4666 
L 2559 4666 
L 4225 331 
L 4684 331 
L 4684 0 
L 2988 0 
L 2988 331 
L 3506 331 
L 3116 1356 
L 1153 1356 
L 763 331 
L 1275 331 
L 1275 0 
L -38 0 
z
" transform="scale(0.015625)"/>
       <path id="DejaVuSerif-68" d="M 263 0 
L 263 331 
L 781 331 
L 781 4531 
L 231 4531 
L 231 4863 
L 1356 4863 
L 1356 2731 
Q 1516 3069 1770 3241 
Q 2025 3413 2363 3413 
Q 2913 3413 3172 3097 
Q 3431 2781 3431 2113 
L 3431 331 
L 3944 331 
L 3944 0 
L 2356 0 
L 2356 331 
L 2853 331 
L 2853 1931 
Q 2853 2541 2704 2764 
Q 2556 2988 2175 2988 
Q 1775 2988 1565 2697 
Q 1356 2406 1356 1850 
L 1356 331 
L 1856 331 
L 1856 0 
L 263 0 
z
" transform="scale(0.015625)"/>
       <path id="DejaVuSerif-6f" d="M 1925 219 
Q 2388 219 2623 584 
Q 2859 950 2859 1663 
Q 2859 2375 2623 2739 
Q 2388 3103 1925 3103 
Q 1463 3103 1227 2739 
Q 991 2375 991 1663 
Q 991 950 1228 584 
Q 1466 219 1925 219 
z
M 1925 -91 
Q 1200 -91 759 389 
Q 319 869 319 1663 
Q 319 2456 758 2934 
Q 1197 3413 1925 3413 
Q 2653 3413 3092 2934 
Q 3531 2456 3531 1663 
Q 3531 869 3092 389 
Q 2653 -91 1925 -91 
z
" transform="scale(0.015625)"/>
      </defs>
      <use xlink:href="#STIXGeneral-Italic-65" transform="translate(0 0.015625)"/>
      <use xlink:href="#STIXGeneral-Regular-2b" transform="translate(60.681116 35.290625) scale(0.7)"/>
      <use xlink:href="#STIXGeneral-Italic-65" transform="translate(123.148478 0.015625)"/>
      <use xlink:href="#STIXGeneral-Regular-2212" transform="translate(183.829594 35.290625) scale(0.7)"/>
      <use xlink:href="#DejaVuSerif-20" transform="translate(246.296956 0.015625)"/>
      <use xlink:href="#DejaVuSerif-41" transform="translate(278.084066 0.015625)"/>
      <use xlink:href="#DejaVuSerif-6e" transform="translate(350.300862 0.015625)"/>
      <use xlink:href="#DejaVuSerif-6e" transform="translate(414.705159 0.015625)"/>
      <use xlink:href="#DejaVuSerif-69" transform="translate(479.109456 0.015625)"/>
      <use xlink:href="#DejaVuSerif-68" transform="translate(511.091878 0.015625)"/>
      <use xlink:href="#DejaVuSerif-69" transform="translate(575.496175 0.015625)"/>
      <use xlink:href="#DejaVuSerif-6c" transform="translate(607.478597 0.015625)"/>
      <use xlink:href="#DejaVuSerif-61" transform="translate(639.461019 0.015625)"/>
      <use xlink:href="#DejaVuSerif-74" transform="translate(699.080159 0.015625)"/>
      <use xlink:href="#DejaVuSerif-69" transform="translate(739.265706 0.015625)"/>
      <use xlink:href="#DejaVuSerif-6f" transform="translate(771.248128 0.015625)"/>
      <use xlink:href="#DejaVuSerif-6e" transform="translate(831.453206 0.015625)"/>
     </g>
    </g>
    <g id="LineCollection_7">
     <path d="M 461.740781 65.475937 
L 461.740781 52.475937 
" style="fill: none; stroke: #0c5da5; stroke-width: 2"/>
    </g>
    <g id="line2d_21">
     <g>
      <use xlink:href="#m9ee25ad4d6" x="461.740781" y="65.475937" style="fill: #0c5da5; stroke: #0c5da5; stroke-width: 2"/>
     </g>
    </g>
    <g id="line2d_22">
     <g>
      <use xlink:href="#m9ee25ad4d6" x="461.740781" y="52.475937" style="fill: #0c5da5; stroke: #0c5da5; stroke-width: 2"/>
     </g>
    </g>
    <g id="line2d_23"/>
    <g id="line2d_24">
     <g>
      <use xlink:href="#m8e3ae5f457" x="461.740781" y="58.975937" style="fill: #0c5da5; stroke: #0c5da5; stroke-width: 2; stroke-linejoin: miter"/>
     </g>
    </g>
    <g id="text_3">
     <!-- Hadron Collisions -->
     <g transform="translate(485.140781 63.525937) scale(0.13 -0.13)">
      <defs>
       <path id="DejaVuSerif-48" d="M 353 0 
L 353 331 
L 947 331 
L 947 4331 
L 353 4331 
L 353 4666 
L 2175 4666 
L 2175 4331 
L 1581 4331 
L 1581 2719 
L 4000 2719 
L 4000 4331 
L 3406 4331 
L 3406 4666 
L 5228 4666 
L 5228 4331 
L 4634 4331 
L 4634 331 
L 5228 331 
L 5228 0 
L 3406 0 
L 3406 331 
L 4000 331 
L 4000 2338 
L 1581 2338 
L 1581 331 
L 2175 331 
L 2175 0 
L 353 0 
z
" transform="scale(0.015625)"/>
       <path id="DejaVuSerif-64" d="M 3359 331 
L 3909 331 
L 3909 0 
L 2784 0 
L 2784 519 
Q 2616 206 2355 57 
Q 2094 -91 1709 -91 
Q 1097 -91 708 395 
Q 319 881 319 1663 
Q 319 2444 706 2928 
Q 1094 3413 1709 3413 
Q 2094 3413 2355 3264 
Q 2616 3116 2784 2803 
L 2784 4531 
L 2241 4531 
L 2241 4863 
L 3359 4863 
L 3359 331 
z
M 2784 1497 
L 2784 1825 
Q 2784 2422 2554 2737 
Q 2325 3053 1888 3053 
Q 1444 3053 1217 2703 
Q 991 2353 991 1663 
Q 991 975 1217 622 
Q 1444 269 1888 269 
Q 2325 269 2554 583 
Q 2784 897 2784 1497 
z
" transform="scale(0.015625)"/>
       <path id="DejaVuSerif-43" d="M 4513 1234 
Q 4306 581 3820 245 
Q 3334 -91 2591 -91 
Q 2134 -91 1743 65 
Q 1353 222 1050 525 
Q 700 875 529 1320 
Q 359 1766 359 2328 
Q 359 3416 987 4083 
Q 1616 4750 2644 4750 
Q 3025 4750 3456 4650 
Q 3888 4550 4384 4347 
L 4384 3272 
L 4031 3272 
Q 3916 3859 3567 4137 
Q 3219 4416 2591 4416 
Q 1844 4416 1459 3886 
Q 1075 3356 1075 2328 
Q 1075 1303 1459 773 
Q 1844 244 2591 244 
Q 3113 244 3450 492 
Q 3788 741 3938 1234 
L 4513 1234 
z
" transform="scale(0.015625)"/>
      </defs>
      <use xlink:href="#DejaVuSerif-48"/>
      <use xlink:href="#DejaVuSerif-61" x="87.207031"/>
      <use xlink:href="#DejaVuSerif-64" x="146.826172"/>
      <use xlink:href="#DejaVuSerif-72" x="210.839844"/>
      <use xlink:href="#DejaVuSerif-6f" x="258.642578"/>
      <use xlink:href="#DejaVuSerif-6e" x="318.847656"/>
      <use xlink:href="#DejaVuSerif-20" x="383.251953"/>
      <use xlink:href="#DejaVuSerif-43" x="415.039062"/>
      <use xlink:href="#DejaVuSerif-6f" x="491.552734"/>
      <use xlink:href="#DejaVuSerif-6c" x="551.757812"/>
      <use xlink:href="#DejaVuSerif-6c" x="583.740234"/>
      <use xlink:href="#DejaVuSerif-69" x="615.722656"/>
      <use xlink:href="#DejaVuSerif-73" x="647.705078"/>
      <use xlink:href="#DejaVuSerif-69" x="699.023438"/>
      <use xlink:href="#DejaVuSerif-6f" x="731.005859"/>
      <use xlink:href="#DejaVuSerif-6e" x="791.210938"/>
      <use xlink:href="#DejaVuSerif-73" x="855.615234"/>
     </g>
    </g>
    <g id="LineCollection_8">
     <path d="M 461.740781 84.5575 
L 461.740781 71.5575 
" style="fill: none; stroke: #845b97; stroke-width: 2"/>
    </g>
    <g id="line2d_25">
     <g>
      <use xlink:href="#m2213381c67" x="461.740781" y="84.5575" style="fill: #845b97; stroke: #845b97; stroke-width: 2"/>
     </g>
    </g>
    <g id="line2d_26">
     <g>
      <use xlink:href="#m2213381c67" x="461.740781" y="71.5575" style="fill: #845b97; stroke: #845b97; stroke-width: 2"/>
     </g>
    </g>
    <g id="line2d_27"/>
    <g id="line2d_28">
     <g>
      <use xlink:href="#ma13abc75a2" x="461.740781" y="78.0575" style="fill: #845b97; stroke: #845b97; stroke-width: 2; stroke-linejoin: miter"/>
     </g>
    </g>
    <g id="text_4">
     <!-- Heavy Quarkonia -->
     <g transform="translate(485.140781 82.6075) scale(0.13 -0.13)">
      <defs>
       <path id="DejaVuSerif-76" d="M 1581 0 
L 359 2988 
L -19 2988 
L -19 3322 
L 1509 3322 
L 1509 2988 
L 978 2988 
L 1913 703 
L 2847 2988 
L 2350 2988 
L 2350 3322 
L 3597 3322 
L 3597 2988 
L 3225 2988 
L 2003 0 
L 1581 0 
z
" transform="scale(0.015625)"/>
       <path id="DejaVuSerif-79" d="M 1381 -609 
L 1600 -56 
L 359 2988 
L -19 2988 
L -19 3322 
L 1509 3322 
L 1509 2988 
L 978 2988 
L 1913 703 
L 2847 2988 
L 2350 2988 
L 2350 3322 
L 3597 3322 
L 3597 2988 
L 3225 2988 
L 1703 -750 
Q 1547 -1138 1356 -1280 
Q 1166 -1422 819 -1422 
Q 672 -1422 517 -1397 
Q 363 -1372 206 -1325 
L 206 -691 
L 500 -691 
Q 519 -903 608 -995 
Q 697 -1088 884 -1088 
Q 1056 -1088 1161 -992 
Q 1266 -897 1381 -609 
z
" transform="scale(0.015625)"/>
       <path id="DejaVuSerif-51" d="M 2700 -91 
Q 1628 -91 993 567 
Q 359 1225 359 2328 
Q 359 2894 529 3339 
Q 700 3784 1050 4134 
Q 1356 4441 1750 4595 
Q 2144 4750 2625 4750 
Q 3641 4750 4266 4084 
Q 4891 3419 4891 2328 
Q 4891 1403 4422 773 
Q 3953 144 3128 -38 
Q 3297 -247 3539 -347 
Q 3781 -447 4122 -447 
L 4219 -447 
L 4219 -1025 
Q 3691 -1000 3314 -767 
Q 2938 -534 2700 -91 
z
M 2625 244 
Q 3391 244 3781 770 
Q 4172 1297 4172 2328 
Q 4172 3363 3781 3889 
Q 3391 4416 2625 4416 
Q 1856 4416 1465 3889 
Q 1075 3363 1075 2328 
Q 1075 1297 1465 770 
Q 1856 244 2625 244 
z
" transform="scale(0.015625)"/>
       <path id="DejaVuSerif-75" d="M 2266 3322 
L 3341 3322 
L 3341 331 
L 3884 331 
L 3884 0 
L 2766 0 
L 2766 588 
Q 2606 256 2353 82 
Q 2100 -91 1766 -91 
Q 1213 -91 952 223 
Q 691 538 691 1209 
L 691 2988 
L 172 2988 
L 172 3322 
L 1269 3322 
L 1269 1388 
Q 1269 781 1417 556 
Q 1566 331 1947 331 
Q 2347 331 2556 625 
Q 2766 919 2766 1478 
L 2766 2988 
L 2266 2988 
L 2266 3322 
z
" transform="scale(0.015625)"/>
       <path id="DejaVuSerif-6b" d="M 1831 0 
L 219 0 
L 219 331 
L 738 331 
L 738 4531 
L 184 4531 
L 184 4863 
L 1313 4863 
L 1313 1697 
L 2713 2988 
L 2234 2988 
L 2234 3322 
L 3738 3322 
L 3738 2988 
L 3169 2988 
L 2181 2075 
L 3444 331 
L 3922 331 
L 3922 0 
L 2284 0 
L 2284 331 
L 2759 331 
L 1766 1697 
L 1313 1275 
L 1313 331 
L 1831 331 
L 1831 0 
z
" transform="scale(0.015625)"/>
      </defs>
      <use xlink:href="#DejaVuSerif-48"/>
      <use xlink:href="#DejaVuSerif-65" x="87.207031"/>
      <use xlink:href="#DejaVuSerif-61" x="146.386719"/>
      <use xlink:href="#DejaVuSerif-76" x="206.005859"/>
      <use xlink:href="#DejaVuSerif-79" x="262.5"/>
      <use xlink:href="#DejaVuSerif-20" x="318.994141"/>
      <use xlink:href="#DejaVuSerif-51" x="350.78125"/>
      <use xlink:href="#DejaVuSerif-75" x="432.763672"/>
      <use xlink:href="#DejaVuSerif-61" x="497.167969"/>
      <use xlink:href="#DejaVuSerif-72" x="556.787109"/>
      <use xlink:href="#DejaVuSerif-6b" x="604.589844"/>
      <use xlink:href="#DejaVuSerif-6f" x="665.185547"/>
      <use xlink:href="#DejaVuSerif-6e" x="725.390625"/>
      <use xlink:href="#DejaVuSerif-69" x="789.794922"/>
      <use xlink:href="#DejaVuSerif-61" x="821.777344"/>
     </g>
    </g>
   </g>
  </g>
 </g>
 <defs>
  <clipPath id="pcd5c9aaf75">
   <rect x="3.6" y="3.6" width="669.6" height="388.08"/>
  </clipPath>
 </defs>
</svg>
